<mxfile host="app.diagrams.net" modified="2024-02-29T21:25:48.600Z" agent="Mozilla/5.0 (Windows NT 10.0; Win64; x64) AppleWebKit/537.36 (KHTML, like Gecko) Chrome/121.0.0.0 Safari/537.36" version="24.0.0" etag="-ZFwPYUFLyrL5nSKN9Y8" type="github">
  <diagram name="Page-1" id="r7WOY-ljp86v3sAUDLul">
    <mxGraphModel>
      <root>
        <mxCell id="0" />
        <mxCell id="1" parent="0" />
      </root>
    </mxGraphModel>
  </diagram>
</mxfile>
